<?xml version="1.0" encoding="us-ascii" standalone="no"?><svg xmlns="http://www.w3.org/2000/svg" xmlns:xlink="http://www.w3.org/1999/xlink" contentStyleType="text/css" height="602px" preserveAspectRatio="none" style="width:929px;height:602px;background:#FFFFFF;" version="1.1" viewBox="0 0 929 602" width="929px" zoomAndPan="magnify"><defs/><g><!--cluster Identity-Management--><g id="cluster_Identity-Management"><path d="M8.5,6 L175.5,6 A3.75,3.75 0 0 1 178,8.5 L185,28.2969 L453.5,28.2969 A2.5,2.5 0 0 1 456,30.7969 L456,593.39 A2.5,2.5 0 0 1 453.5,595.89 L8.5,595.89 A2.5,2.5 0 0 1 6,593.39 L6,8.5 A2.5,2.5 0 0 1 8.5,6 " fill="none" style="stroke:#000000;stroke-width:1.5;"/><line style="stroke:#000000;stroke-width:1.5;" x1="6" x2="185" y1="28.2969" y2="28.2969"/><text fill="#000000" font-family="sans-serif" font-size="14" font-weight="bold" lengthAdjust="spacing" textLength="166" x="10" y="20.9951">Identity-Management</text></g><!--cluster as1--><g id="cluster_as1"><rect fill="none" height="122.29" rx="2.5" ry="2.5" style="stroke:#181818;stroke-width:1.0;" width="173" x="38" y="273.3"/><rect fill="none" height="10" style="stroke:#181818;stroke-width:1.0;" width="15" x="191" y="278.3"/><rect fill="none" height="2" style="stroke:#181818;stroke-width:1.0;" width="4" x="189" y="280.3"/><rect fill="none" height="2" style="stroke:#181818;stroke-width:1.0;" width="4" x="189" y="284.3"/><text fill="#000000" font-family="sans-serif" font-size="14" font-weight="bold" lengthAdjust="spacing" textLength="115" x="67" y="299.2951">Authentication</text><text fill="#000000" font-family="sans-serif" font-size="14" font-weight="bold" lengthAdjust="spacing" textLength="74" x="87.5" y="315.592">Service 1</text></g><!--cluster as2--><g id="cluster_as2"><rect fill="none" height="122.29" rx="2.5" ry="2.5" style="stroke:#181818;stroke-width:1.0;" width="173" x="251" y="273.3"/><rect fill="none" height="10" style="stroke:#181818;stroke-width:1.0;" width="15" x="404" y="278.3"/><rect fill="none" height="2" style="stroke:#181818;stroke-width:1.0;" width="4" x="402" y="280.3"/><rect fill="none" height="2" style="stroke:#181818;stroke-width:1.0;" width="4" x="402" y="284.3"/><text fill="#000000" font-family="sans-serif" font-size="14" font-weight="bold" lengthAdjust="spacing" textLength="115" x="280" y="299.2951">Authentication</text><text fill="#000000" font-family="sans-serif" font-size="14" font-weight="bold" lengthAdjust="spacing" textLength="74" x="300.5" y="315.592">Service 2</text></g><!--cluster client--><g id="cluster_client"><rect fill="none" height="106.3" rx="2.5" ry="2.5" style="stroke:#181818;stroke-width:1.0;" width="161" x="263" y="57"/><rect fill="none" height="10" style="stroke:#181818;stroke-width:1.0;" width="15" x="404" y="62"/><rect fill="none" height="2" style="stroke:#181818;stroke-width:1.0;" width="4" x="402" y="64"/><rect fill="none" height="2" style="stroke:#181818;stroke-width:1.0;" width="4" x="402" y="68"/><text fill="#000000" font-family="sans-serif" font-size="14" font-weight="bold" lengthAdjust="spacing" textLength="93" x="297" y="82.9951">Map Viewer</text></g><!--cluster Benutzer-Register--><g id="cluster_Benutzer-Register"><path d="M218.5,475.59 L363.5,475.59 A3.75,3.75 0 0 1 366,478.09 L373,497.8869 L379.5,497.8869 A2.5,2.5 0 0 1 382,500.3869 L382,569.39 A2.5,2.5 0 0 1 379.5,571.89 L218.5,571.89 A2.5,2.5 0 0 1 216,569.39 L216,478.09 A2.5,2.5 0 0 1 218.5,475.59 " fill="none" style="stroke:#000000;stroke-width:1.5;"/><line style="stroke:#000000;stroke-width:1.5;" x1="216" x2="373" y1="497.8869" y2="497.8869"/><text fill="#000000" font-family="sans-serif" font-size="14" font-weight="bold" lengthAdjust="spacing" textLength="144" x="220" y="490.5851">Benutzer-Register</text></g><!--cluster Access-Management--><g id="cluster_Access-Management"><path d="M482.5,195.3 L647.5,195.3 A3.75,3.75 0 0 1 650,197.8 L657,217.5969 L919.5,217.5969 A2.5,2.5 0 0 1 922,220.0969 L922,449.09 A2.5,2.5 0 0 1 919.5,451.59 L482.5,451.59 A2.5,2.5 0 0 1 480,449.09 L480,197.8 A2.5,2.5 0 0 1 482.5,195.3 " fill="none" style="stroke:#000000;stroke-width:1.5;"/><line style="stroke:#000000;stroke-width:1.5;" x1="480" x2="657" y1="217.5969" y2="217.5969"/><text fill="#000000" font-family="sans-serif" font-size="14" font-weight="bold" lengthAdjust="spacing" textLength="164" x="484" y="210.2951">Access-Management</text></g><!--cluster ds--><g id="cluster_ds"><rect fill="none" height="173.29" rx="2.5" ry="2.5" style="stroke:#181818;stroke-width:1.0;" width="378" x="512" y="246.3"/><rect fill="none" height="10" style="stroke:#181818;stroke-width:1.0;" width="15" x="870" y="251.3"/><rect fill="none" height="2" style="stroke:#181818;stroke-width:1.0;" width="4" x="868" y="253.3"/><rect fill="none" height="2" style="stroke:#181818;stroke-width:1.0;" width="4" x="868" y="257.3"/><text fill="#000000" font-family="sans-serif" font-size="14" font-weight="bold" lengthAdjust="spacing" textLength="92" x="655" y="272.2951">dataservice</text></g><!--cluster Access-Manager--><g id="cluster_Access-Manager"><rect fill="none" height="90.29" rx="2.5" ry="2.5" style="stroke:#181818;stroke-width:1.0;" width="306" x="544" y="297.3"/><rect fill="none" height="10" style="stroke:#181818;stroke-width:1.0;" width="15" x="830" y="302.3"/><rect fill="none" height="2" style="stroke:#181818;stroke-width:1.0;" width="4" x="828" y="304.3"/><rect fill="none" height="2" style="stroke:#181818;stroke-width:1.0;" width="4" x="828" y="308.3"/><text fill="#000000" font-family="sans-serif" font-size="14" font-weight="bold" lengthAdjust="spacing" textLength="131" x="631.5" y="323.2951">Access-Manager</text></g><!--entity Private-Key--><g id="elem_Private-Key"><rect fill="#F1F1F1" height="39.2969" rx="2.5" ry="2.5" style="stroke:#181818;stroke-width:0.5;" width="106" x="62" y="332.3"/><polygon fill="#F1F1F1" points="151,337.3,151,351.3,163,351.3,163,343.3,157,337.3,151,337.3" style="stroke:#181818;stroke-width:0.5;"/><line style="stroke:#181818;stroke-width:0.5;" x1="157" x2="157" y1="337.3" y2="343.3"/><line style="stroke:#181818;stroke-width:0.5;" x1="163" x2="157" y1="343.3" y2="343.3"/><text fill="#000000" font-family="sans-serif" font-size="14" lengthAdjust="spacing" textLength="76" x="72" y="358.2951">Private-Key</text></g><!--entity pk2--><g id="elem_pk2"><rect fill="#F1F1F1" height="39.2969" rx="2.5" ry="2.5" style="stroke:#181818;stroke-width:0.5;" width="106" x="275" y="332.3"/><polygon fill="#F1F1F1" points="364,337.3,364,351.3,376,351.3,376,343.3,370,337.3,364,337.3" style="stroke:#181818;stroke-width:0.5;"/><line style="stroke:#181818;stroke-width:0.5;" x1="370" x2="370" y1="337.3" y2="343.3"/><line style="stroke:#181818;stroke-width:0.5;" x1="376" x2="370" y1="343.3" y2="343.3"/><text fill="#000000" font-family="sans-serif" font-size="14" lengthAdjust="spacing" textLength="76" x="285" y="358.2951">Private-Key</text></g><!--entity ID-Token--><g id="elem_ID-Token"><rect fill="#F1F1F1" height="39.2969" rx="2.5" ry="2.5" style="stroke:#181818;stroke-width:0.5;" width="93" x="287.5" y="100"/><polygon fill="#F1F1F1" points="363.5,105,363.5,119,375.5,119,375.5,111,369.5,105,363.5,105" style="stroke:#181818;stroke-width:0.5;"/><line style="stroke:#181818;stroke-width:0.5;" x1="369.5" x2="369.5" y1="105" y2="111"/><line style="stroke:#181818;stroke-width:0.5;" x1="375.5" x2="369.5" y1="111" y2="111"/><text fill="#000000" font-family="sans-serif" font-size="14" lengthAdjust="spacing" textLength="63" x="297.5" y="125.9951">ID-Token</text></g><!--entity idp--><g id="elem_idp"><path d="M231.5,520.59 C231.5,510.59 253,510.59 253,510.59 C253,510.59 274.5,510.59 274.5,520.59 L274.5,545.8869 C274.5,555.8869 253,555.8869 253,555.8869 C253,555.8869 231.5,555.8869 231.5,545.8869 L231.5,520.59 " fill="#F1F1F1" style="stroke:#181818;stroke-width:0.5;"/><path d="M231.5,520.59 C231.5,530.59 253,530.59 253,530.59 C253,530.59 274.5,530.59 274.5,520.59 " fill="none" style="stroke:#181818;stroke-width:0.5;"/><text fill="#000000" font-family="sans-serif" font-size="14" lengthAdjust="spacing" textLength="23" x="241.5" y="547.5851">IDP</text></g><!--entity ldap--><g id="elem_ldap"><path d="M310,520.59 C310,510.59 338,510.59 338,510.59 C338,510.59 366,510.59 366,520.59 L366,545.8869 C366,555.8869 338,555.8869 338,555.8869 C338,555.8869 310,555.8869 310,545.8869 L310,520.59 " fill="#F1F1F1" style="stroke:#181818;stroke-width:0.5;"/><path d="M310,520.59 C310,530.59 338,530.59 338,530.59 C338,530.59 366,530.59 366,520.59 " fill="none" style="stroke:#181818;stroke-width:0.5;"/><text fill="#000000" font-family="sans-serif" font-size="14" lengthAdjust="spacing" textLength="36" x="320" y="547.5851">LDAP</text></g><!--entity permissions.json--><g id="elem_permissions.json"><path d="M560.5,336.3 L560.5,367.5969 A2.5,2.5 0 0 0 563,370.0969 L695,370.0969 A2.5,2.5 0 0 0 697.5,367.5969 L697.5,343.8 L687.5,333.8 L563,333.8 A2.5,2.5 0 0 0 560.5,336.3 " fill="#F1F1F1" style="stroke:#181818;stroke-width:0.5;"/><path d="M687.5,333.8 L687.5,341.3 A2.5,2.5 0 0 0 690,343.8 L697.5,343.8 " fill="#F1F1F1" style="stroke:#181818;stroke-width:0.5;"/><text fill="#000000" font-family="sans-serif" font-size="14" lengthAdjust="spacing" textLength="117" x="570.5" y="356.7951">permissions.json</text></g><!--entity Public-Key--><g id="elem_Public-Key"><rect fill="#F1F1F1" height="39.2969" rx="2.5" ry="2.5" style="stroke:#181818;stroke-width:0.5;" width="101" x="732.5" y="332.3"/><polygon fill="#F1F1F1" points="816.5,337.3,816.5,351.3,828.5,351.3,828.5,343.3,822.5,337.3,816.5,337.3" style="stroke:#181818;stroke-width:0.5;"/><line style="stroke:#181818;stroke-width:0.5;" x1="822.5" x2="822.5" y1="337.3" y2="343.3"/><line style="stroke:#181818;stroke-width:0.5;" x1="828.5" x2="822.5" y1="343.3" y2="343.3"/><text fill="#000000" font-family="sans-serif" font-size="14" lengthAdjust="spacing" textLength="71" x="742.5" y="358.2951">Public-Key</text></g><!--link as1 to idp--><g id="link_as1_idp"><path d="M211.0809,381.925 C211.9887,385.1811 212.9527,388.6383 213.9618,392.2574 C215.9801,399.4957 218.1791,407.3816 220.4713,415.6013 C229.64,448.48 240.3,486.7 246.85,510.18 " fill="none" id="as1-idp" style="stroke:#181818;stroke-width:1.0;"/></g><!--link as2 to ldap--><g id="link_as2_ldap"><path d="M413.3234,395.8648 C413.2813,396.205 413.2386,396.5462 413.1953,396.8885 C413.1086,397.573 413.0192,398.2616 412.9271,398.9541 C412.5587,401.724 412.1466,404.5552 411.6856,407.4287 C410.7637,413.1756 409.6463,419.0916 408.2923,425.0237 C405.5844,436.8881 401.93,448.8175 397,459.59 C388.35,478.5 373.6,496.67 361.01,510.1 " fill="none" id="as2-ldap" style="stroke:#181818;stroke-width:1.0;"/></g><!--link client to as1--><g id="link_client_as1"><path d="M408.9816,163.3708 C408.9387,163.4657 408.8956,163.5604 408.8522,163.655 C406.075,169.71 402.2525,175.2425 397,179.3 C372.69,198.07 283.46,168.72 259,187.3 C243.935,198.74 232.8931,214.46 224.8067,231.6606 C220.7635,240.2609 217.4592,249.2314 214.7603,258.2221 C213.4108,262.7175 212.2127,267.2179 211.1492,271.6796 C211.0828,271.9585 211.0168,272.2372 210.9514,272.5157 " fill="none" id="client-as1" style="stroke:#181818;stroke-width:1.0;"/></g><!--link client to as2--><g id="link_client_as2"><path d="M416,163.8119 C416,164.1609 416,164.5114 416,164.8633 C416,165.5672 416,166.2768 416,166.992 C416,169.853 416,172.8033 416,175.8304 C416,181.8845 416,188.2453 416,194.8106 C416,207.941 416,221.8891 416,235.8363 C416,242.8098 416,249.7832 416,256.6541 C416,260.0895 416,263.4993 416,266.8707 C416,268.5564 416,270.2325 416,271.8973 C416,272.3136 416,272.7291 416,273.1439 " fill="none" id="client-as2" style="stroke:#181818;stroke-width:1.0;"/></g><!--link client to ds--><g id="link_client_ds"><path d="M424.2158,120.6773 C424.447,120.6788 424.6827,120.6804 424.923,120.682 C425.4035,120.6854 425.9022,120.689 426.4188,120.693 C428.4851,120.7091 430.8373,120.7311 433.4558,120.7609 C443.93,120.8802 458.6652,121.1261 476.4086,121.6309 C511.8953,122.6406 559.4144,124.6862 608.9413,128.8275 C707.995,137.11 815.08,153.775 850,187.3 C863.155,199.93 871.7731,216.2544 877.2908,233.6898 C877.9805,235.8693 878.6218,238.0661 879.2174,240.2752 C879.5152,241.3797 879.8016,242.4874 880.0769,243.5975 C880.2146,244.1525 880.3495,244.7081 880.4817,245.2643 C880.5478,245.5424 880.6132,245.8207 880.6779,246.099 " fill="none" id="client-ds" style="stroke:#181818;stroke-width:1.0;"/></g><!--SRC=[ZL5DJyCm3BttLqIz1sdz1qMxJ31f0iI9YvTumxHDepWT6eZ_ZjDbQZTD0gk7llZv-UDvC0tiKQqikaZngDVW17U2lWibOVhEzqwWAkiXlYUMWKYzUtFF60vaK2rA1IpVGfrAKa28j0CZLPj01uYe7_1OZkcV_-fMMRVwKpVnV5Db-MlzDNZrIlY9OIIQbjBpBStLKh_q3RfohkJpYUxH3V4BWtx2FN74C2bOYB05ngIm6PkGzJUoZylwb6wjp7HkaYwdzLYIbfNVb2xod0A5S86gGghEOzN68FFCDtLjNEhF-QRIs_9izxaDSo4vrKHAiQCMbSVG4REun7SVtBiBnioQOTkIcHoVN4-HrvOLffqi_m80]--></g></svg>